<svg width="80" height="80" viewBox="0 0 80 80" fill="none" xmlns="http://www.w3.org/2000/svg">
<g clip-path="url(#clip0_2065_470)">
<path d="M65.3125 25.9375H59.6875V46.5625H63.4375C64.1834 46.5625 64.8988 46.2662 65.4262 45.7387C65.9537 45.2113 66.25 44.4959 66.25 43.75V26.875C66.25 26.6264 66.1512 26.3879 65.9754 26.2121C65.7996 26.0363 65.5611 25.9375 65.3125 25.9375Z" fill="#A5B4FC"/>
<path d="M60.625 43.75V12.8125C60.625 12.0666 60.3287 11.3512 59.8012 10.8238C59.2738 10.2963 58.5584 10 57.8125 10H54.0625V46.5625H63.4375C62.6916 46.5625 61.9762 46.2662 61.4488 45.7387C60.9213 45.2113 60.625 44.4959 60.625 43.75Z" fill="#C7D2FE"/>
<path d="M16.5625 10C15.8166 10 15.1012 10.2963 14.5738 10.8238C14.0463 11.3512 13.75 12.0666 13.75 12.8125V69.0625C13.7499 69.2322 13.7959 69.3987 13.883 69.5443C13.9701 69.6898 14.0951 69.8091 14.2446 69.8892C14.3941 69.9694 14.5626 70.0075 14.7321 69.9994C14.9015 69.9913 15.0656 69.9374 15.2069 69.8434L17.5056 68.3125L19.8044 69.8416C19.9583 69.9442 20.1392 69.9989 20.3242 69.9989C20.5092 69.9989 20.6901 69.9442 20.8441 69.8416L23.1381 68.3134L25.4312 69.8416C25.5853 69.9444 25.7664 69.9992 25.9516 69.9992C26.1368 69.9992 26.3178 69.9444 26.4719 69.8416L28.7641 68.3134L31.0534 69.8416C31.2075 69.9444 31.3885 69.9992 31.5737 69.9992C31.7589 69.9992 31.94 69.9444 32.0941 69.8416L34.3872 68.3134L36.6803 69.8416C36.8343 69.9442 37.0151 69.9989 37.2002 69.9989C37.3852 69.9989 37.566 69.9442 37.72 69.8416L40.0122 68.3134L42.3025 69.8416C42.4565 69.9442 42.6373 69.9989 42.8223 69.9989C43.0074 69.9989 43.1882 69.9442 43.3422 69.8416L45.6344 68.3125L47.9237 69.8406C48.0778 69.9434 48.2589 69.9983 48.4441 69.9983C48.6293 69.9983 48.8103 69.9434 48.9644 69.8406L51.2547 68.3125L53.5413 69.8406C53.6823 69.935 53.8464 69.9893 54.0159 69.9977C54.1854 70.0062 54.354 69.9684 54.5037 69.8886C54.6535 69.8087 54.7787 69.6897 54.8661 69.5442C54.9535 69.3987 54.9998 69.2322 55 69.0625V12.8125C55 12.0666 55.2963 11.3512 55.8238 10.8238C56.3512 10.2963 57.0666 10 57.8125 10H16.5625Z" fill="#E0E7FF"/>
<path d="M34.375 35.3125C40.0704 35.3125 44.6875 30.6954 44.6875 25C44.6875 19.3046 40.0704 14.6875 34.375 14.6875C28.6796 14.6875 24.0625 19.3046 24.0625 25C24.0625 30.6954 28.6796 35.3125 34.375 35.3125Z" fill="#A5B4FC"/>
<path d="M49.375 40H19.375C19.1264 40 18.8879 39.9012 18.7121 39.7254C18.5363 39.5496 18.4375 39.3111 18.4375 39.0625C18.4375 38.8139 18.5363 38.5754 18.7121 38.3996C18.8879 38.2238 19.1264 38.125 19.375 38.125H49.375C49.6236 38.125 49.8621 38.2238 50.0379 38.3996C50.2137 38.5754 50.3125 38.8139 50.3125 39.0625C50.3125 39.3111 50.2137 39.5496 50.0379 39.7254C49.8621 39.9012 49.6236 40 49.375 40Z" fill="#A5B4FC"/>
<path d="M43.75 44.6875H19.375C19.1264 44.6875 18.8879 44.5887 18.7121 44.4129C18.5363 44.2371 18.4375 43.9986 18.4375 43.75C18.4375 43.5014 18.5363 43.2629 18.7121 43.0871C18.8879 42.9113 19.1264 42.8125 19.375 42.8125H43.75C43.9986 42.8125 44.2371 42.9113 44.4129 43.0871C44.5887 43.2629 44.6875 43.5014 44.6875 43.75C44.6875 43.9986 44.5887 44.2371 44.4129 44.4129C44.2371 44.5887 43.9986 44.6875 43.75 44.6875Z" fill="#A5B4FC"/>
<path d="M43.75 49.375H19.375C19.1264 49.375 18.8879 49.2762 18.7121 49.1004C18.5363 48.9246 18.4375 48.6861 18.4375 48.4375C18.4375 48.1889 18.5363 47.9504 18.7121 47.7746C18.8879 47.5988 19.1264 47.5 19.375 47.5H43.75C43.9986 47.5 44.2371 47.5988 44.4129 47.7746C44.5887 47.9504 44.6875 48.1889 44.6875 48.4375C44.6875 48.6861 44.5887 48.9246 44.4129 49.1004C44.2371 49.2762 43.9986 49.375 43.75 49.375Z" fill="#A5B4FC"/>
<path d="M43.75 54.0625H19.375C19.1264 54.0625 18.8879 53.9637 18.7121 53.7879C18.5363 53.6121 18.4375 53.3736 18.4375 53.125C18.4375 52.8764 18.5363 52.6379 18.7121 52.4621C18.8879 52.2863 19.1264 52.1875 19.375 52.1875H43.75C43.9986 52.1875 44.2371 52.2863 44.4129 52.4621C44.5887 52.6379 44.6875 52.8764 44.6875 53.125C44.6875 53.3736 44.5887 53.6121 44.4129 53.7879C44.2371 53.9637 43.9986 54.0625 43.75 54.0625Z" fill="#A5B4FC"/>
<path d="M43.75 58.75H19.375C19.1264 58.75 18.8879 58.6512 18.7121 58.4754C18.5363 58.2996 18.4375 58.0611 18.4375 57.8125C18.4375 57.5639 18.5363 57.3254 18.7121 57.1496C18.8879 56.9738 19.1264 56.875 19.375 56.875H43.75C43.9986 56.875 44.2371 56.9738 44.4129 57.1496C44.5887 57.3254 44.6875 57.5639 44.6875 57.8125C44.6875 58.0611 44.5887 58.2996 44.4129 58.4754C44.2371 58.6512 43.9986 58.75 43.75 58.75Z" fill="#A5B4FC"/>
<path d="M49.375 63.4375H37.1875C36.9389 63.4375 36.7004 63.3387 36.5246 63.1629C36.3488 62.9871 36.25 62.7486 36.25 62.5C36.25 62.2514 36.3488 62.0129 36.5246 61.8371C36.7004 61.6613 36.9389 61.5625 37.1875 61.5625H49.375C49.6236 61.5625 49.8621 61.6613 50.0379 61.8371C50.2137 62.0129 50.3125 62.2514 50.3125 62.5C50.3125 62.7486 50.2137 62.9871 50.0379 63.1629C49.8621 63.3387 49.6236 63.4375 49.375 63.4375Z" fill="#A5B4FC"/>
<path d="M49.375 44.6875H46.5625C46.3139 44.6875 46.0754 44.5887 45.8996 44.4129C45.7238 44.2371 45.625 43.9986 45.625 43.75C45.625 43.5014 45.7238 43.2629 45.8996 43.0871C46.0754 42.9113 46.3139 42.8125 46.5625 42.8125H49.375C49.6236 42.8125 49.8621 42.9113 50.0379 43.0871C50.2137 43.2629 50.3125 43.5014 50.3125 43.75C50.3125 43.9986 50.2137 44.2371 50.0379 44.4129C49.8621 44.5887 49.6236 44.6875 49.375 44.6875Z" fill="#A5B4FC"/>
<path d="M49.375 49.375H46.5625C46.3139 49.375 46.0754 49.2762 45.8996 49.1004C45.7238 48.9246 45.625 48.6861 45.625 48.4375C45.625 48.1889 45.7238 47.9504 45.8996 47.7746C46.0754 47.5988 46.3139 47.5 46.5625 47.5H49.375C49.6236 47.5 49.8621 47.5988 50.0379 47.7746C50.2137 47.9504 50.3125 48.1889 50.3125 48.4375C50.3125 48.6861 50.2137 48.9246 50.0379 49.1004C49.8621 49.2762 49.6236 49.375 49.375 49.375Z" fill="#A5B4FC"/>
<path d="M49.375 54.0625H46.5625C46.3139 54.0625 46.0754 53.9637 45.8996 53.7879C45.7238 53.6121 45.625 53.3736 45.625 53.125C45.625 52.8764 45.7238 52.6379 45.8996 52.4621C46.0754 52.2863 46.3139 52.1875 46.5625 52.1875H49.375C49.6236 52.1875 49.8621 52.2863 50.0379 52.4621C50.2137 52.6379 50.3125 52.8764 50.3125 53.125C50.3125 53.3736 50.2137 53.6121 50.0379 53.7879C49.8621 53.9637 49.6236 54.0625 49.375 54.0625Z" fill="#A5B4FC"/>
<path d="M49.375 58.75H46.5625C46.3139 58.75 46.0754 58.6512 45.8996 58.4754C45.7238 58.2996 45.625 58.0611 45.625 57.8125C45.625 57.5639 45.7238 57.3254 45.8996 57.1496C46.0754 56.9738 46.3139 56.875 46.5625 56.875H49.375C49.6236 56.875 49.8621 56.9738 50.0379 57.1496C50.2137 57.3254 50.3125 57.5639 50.3125 57.8125C50.3125 58.0611 50.2137 58.2996 50.0379 58.4754C49.8621 58.6512 49.6236 58.75 49.375 58.75Z" fill="#A5B4FC"/>
<path d="M48.4375 25.9375H47.5C47.2514 25.9375 47.0129 25.8387 46.8371 25.6629C46.6613 25.4871 46.5625 25.2486 46.5625 25C46.5625 24.7514 46.6613 24.5129 46.8371 24.3371C47.0129 24.1613 47.2514 24.0625 47.5 24.0625H48.4375C48.6861 24.0625 48.9246 24.1613 49.1004 24.3371C49.2762 24.5129 49.375 24.7514 49.375 25C49.375 25.2486 49.2762 25.4871 49.1004 25.6629C48.9246 25.8387 48.6861 25.9375 48.4375 25.9375Z" fill="#A5B4FC"/>
<path d="M21.25 25.9375H20.3125C20.0639 25.9375 19.8254 25.8387 19.6496 25.6629C19.4738 25.4871 19.375 25.2486 19.375 25C19.375 24.7514 19.4738 24.5129 19.6496 24.3371C19.8254 24.1613 20.0639 24.0625 20.3125 24.0625H21.25C21.4986 24.0625 21.7371 24.1613 21.9129 24.3371C22.0887 24.5129 22.1875 24.7514 22.1875 25C22.1875 25.2486 22.0887 25.4871 21.9129 25.6629C21.7371 25.8387 21.4986 25.9375 21.25 25.9375Z" fill="#A5B4FC"/>
<path d="M37.2915 26.6219C37.0869 26.0316 36.7462 25.4978 36.297 25.0636C35.8479 24.6294 35.3028 24.307 34.7059 24.1225C34.3927 24.0358 34.1022 23.8818 33.8547 23.6713C33.6071 23.4608 33.4084 23.1989 33.2725 22.9037C33.2404 22.7555 33.2481 22.6015 33.2949 22.4572C33.3416 22.313 33.4258 22.1837 33.5387 22.0825C34.2071 21.2884 35.6453 22.375 35.6575 22.3844C35.7545 22.4602 35.8656 22.5162 35.9843 22.5491C36.103 22.582 36.227 22.5912 36.3493 22.5762C36.4716 22.5612 36.5897 22.5222 36.6969 22.4616C36.8041 22.4009 36.8983 22.3197 36.9742 22.2227C37.05 22.1256 37.106 22.0145 37.1389 21.8958C37.1718 21.7771 37.181 21.6531 37.166 21.5308C37.151 21.4085 37.1121 21.2904 37.0514 21.1832C36.9907 21.076 36.9095 20.9818 36.8125 20.9059C36.3598 20.5614 35.8528 20.2946 35.3125 20.1166V19.375C35.3125 19.1264 35.2137 18.8879 35.0379 18.7121C34.8621 18.5363 34.6236 18.4375 34.375 18.4375C34.1263 18.4375 33.8879 18.5363 33.712 18.7121C33.5362 18.8879 33.4375 19.1264 33.4375 19.375V20.0106C32.9136 20.1515 32.4474 20.454 32.1053 20.875C31.8005 21.2072 31.5821 21.6093 31.4693 22.0458C31.3565 22.4823 31.3528 22.9398 31.4584 23.3781C31.663 23.9684 32.0037 24.5022 32.4529 24.9364C32.9021 25.3706 33.4471 25.693 34.044 25.8775C34.3572 25.9642 34.6477 26.1182 34.8952 26.3287C35.1428 26.5392 35.3415 26.8011 35.4775 27.0963C35.5095 27.2445 35.5018 27.3985 35.455 27.5428C35.4083 27.687 35.3241 27.8163 35.2112 27.9175C34.5465 28.7003 33.1253 27.6363 33.0906 27.6138C32.8936 27.4694 32.648 27.4077 32.4062 27.4417C32.1643 27.4756 31.9453 27.6026 31.7957 27.7956C31.646 27.9886 31.5776 28.2324 31.605 28.4751C31.6323 28.7177 31.7533 28.9402 31.9421 29.095C32.395 29.4327 32.9002 29.694 33.4375 29.8684V30.625C33.4375 30.8736 33.5362 31.1121 33.712 31.2879C33.8879 31.4637 34.1263 31.5625 34.375 31.5625C34.6236 31.5625 34.8621 31.4637 35.0379 31.2879C35.2137 31.1121 35.3125 30.8736 35.3125 30.625V29.98C35.8355 29.8423 36.3017 29.5431 36.6446 29.125C36.9494 28.7928 37.1678 28.3907 37.2806 27.9542C37.3934 27.5177 37.3972 27.0602 37.2915 26.6219Z" fill="#6366F1"/>
</g>
<defs>
<clipPath id="clip0_2065_470">
<rect width="60" height="60" fill="white" transform="translate(10 10)"/>
</clipPath>
</defs>
</svg>
